<svg xmlns="http://www.w3.org/2000/svg" width="15" height="15" viewBox="0 0 15 15" fill="none">
<g clip-path="url(#clip0_393_2060)">
<path d="M2.50252 1.11528C2.71082 1.23233 2.87172 1.42087 3.0381 1.59009C3.08226 1.6343 3.12647 1.67848 3.17071 1.72261C3.29025 1.8421 3.40921 1.96216 3.52807 2.08234C3.65255 2.208 3.77756 2.33312 3.90251 2.4583C4.13886 2.69522 4.37472 2.93263 4.6104 3.17021C4.87883 3.44074 5.1478 3.71074 5.41681 3.9807C5.96999 4.53585 6.5225 5.09166 7.07456 5.64792C7.3161 5.44911 7.53478 5.2294 7.75466 5.00737C7.79619 4.96558 7.83774 4.9238 7.87929 4.88203C7.96832 4.79249 8.0573 4.70291 8.14625 4.61328C8.287 4.47147 8.42796 4.32988 8.56896 4.18832C8.61735 4.13975 8.66573 4.09117 8.71411 4.04259C8.73833 4.01828 8.76254 3.99396 8.78749 3.96891C9.11542 3.63963 9.44316 3.31018 9.77052 2.98034C9.9918 2.75737 10.2134 2.53468 10.4352 2.31229C10.5524 2.19475 10.6695 2.07708 10.7863 1.95907C10.896 1.84816 11.0061 1.73761 11.1165 1.62732C11.1568 1.58687 11.1971 1.54628 11.2371 1.50556C11.292 1.44984 11.3474 1.3946 11.4028 1.33946C11.4336 1.30847 11.4644 1.27748 11.4962 1.24556C11.6466 1.12338 11.7926 1.05996 11.9875 1.0387C12.5143 1.09415 12.8526 1.55071 13.208 1.90624C13.2687 1.96684 13.3297 2.02713 13.3907 2.08743C13.4298 2.12644 13.4689 2.16548 13.508 2.20454C13.5429 2.23927 13.5778 2.27399 13.6137 2.30977C13.782 2.49513 13.8575 2.65986 13.866 2.90781C13.8674 2.93442 13.8688 2.96102 13.8703 2.98844C13.8112 3.35049 13.5303 3.58184 13.2819 3.82677C13.2385 3.8702 13.195 3.91366 13.1516 3.95715C13.0342 4.07459 12.9164 4.19156 12.7984 4.30845C12.6751 4.43088 12.5521 4.55374 12.4291 4.67656C12.1964 4.90882 11.9633 5.1407 11.73 5.37244C11.4644 5.63639 11.1992 5.90077 10.934 6.16518C10.3887 6.70887 9.84294 7.25202 9.29678 7.79482C9.35512 7.93407 9.43971 8.0221 9.54628 8.12794C9.5641 8.14575 9.58193 8.16356 9.6003 8.18191C9.66 8.24148 9.71997 8.30077 9.77994 8.36006C9.82283 8.40275 9.8657 8.44545 9.90856 8.48817C10.0009 8.5801 10.0933 8.67191 10.1858 8.76364C10.3321 8.90873 10.478 9.05413 10.624 9.19959C10.9865 9.56085 11.3494 9.92177 11.7125 10.2825C11.9946 10.5628 12.2766 10.8432 12.5582 11.124C12.7032 11.2686 12.8485 11.4129 12.9939 11.557C13.0845 11.6468 13.1747 11.7368 13.2649 11.8269C13.3068 11.8686 13.3487 11.9101 13.3907 11.9516C13.4482 12.0083 13.5053 12.0654 13.5623 12.1226C13.5943 12.1544 13.6263 12.1862 13.6593 12.219C13.7894 12.3708 13.8704 12.52 13.8707 12.7218C13.8718 12.7653 13.8718 12.7653 13.8729 12.8097C13.8194 13.1179 13.6559 13.3326 13.4384 13.5477C13.4128 13.5736 13.3871 13.5995 13.3607 13.6262C13.3067 13.6805 13.2524 13.7346 13.1979 13.7885C13.1153 13.8703 13.0339 13.9533 12.9525 14.0364C12.8995 14.0893 12.8465 14.1422 12.7934 14.195C12.7695 14.2196 12.7455 14.2441 12.7209 14.2693C12.5093 14.4756 12.2789 14.5905 11.9851 14.631C11.6041 14.5745 11.3719 14.2974 11.1145 14.0364C11.0707 13.9926 11.0268 13.9487 10.983 13.905C10.8645 13.7866 10.7466 13.6677 10.6287 13.5487C10.5052 13.4243 10.3812 13.3003 10.2574 13.1763C10.0231 12.9415 9.78923 12.7064 9.55549 12.4712C9.28926 12.2032 9.02261 11.9358 8.75592 11.6683C8.20754 11.1184 7.6597 10.5679 7.11222 10.017C6.87073 10.2157 6.65235 10.4355 6.43272 10.6576C6.39125 10.6994 6.34977 10.7412 6.30828 10.7829C6.21937 10.8725 6.13051 10.9621 6.04169 11.0517C5.9011 11.1935 5.76028 11.3351 5.61942 11.4766C5.59558 11.5006 5.57175 11.5245 5.54719 11.5492C5.49849 11.5982 5.44978 11.6471 5.40107 11.696C5.07345 12.0253 4.74601 12.3547 4.41911 12.6846C4.19813 12.9077 3.97682 13.1304 3.75511 13.3527C3.63798 13.4702 3.52102 13.5878 3.40447 13.7059C3.2949 13.8169 3.18491 13.9274 3.07457 14.0376C3.03426 14.0781 2.99411 14.1186 2.95414 14.1594C2.70909 14.4091 2.52032 14.583 2.16166 14.6286C1.83142 14.5881 1.61375 14.4147 1.38747 14.1828C1.36063 14.156 1.33379 14.1291 1.30614 14.1015C1.24989 14.045 1.19388 13.9884 1.13809 13.9315C1.05288 13.8447 0.966893 13.7587 0.880762 13.6729C0.825982 13.6177 0.771249 13.5625 0.716567 13.5072C0.678255 13.4689 0.678255 13.4689 0.63917 13.4298C0.436022 13.2215 0.316442 13.0482 0.316084 12.7477C0.315356 12.707 0.314628 12.6662 0.313877 12.6241C0.34916 12.3952 0.509388 12.2414 0.668638 12.0825C0.686762 12.0643 0.704886 12.0461 0.723559 12.0273C0.783814 11.967 0.844332 11.9069 0.904854 11.8467C0.948309 11.8033 0.991746 11.7599 1.03517 11.7164C1.15273 11.5988 1.27052 11.4815 1.38835 11.3642C1.5116 11.2414 1.63462 11.1184 1.75768 10.9954C1.99056 10.7628 2.22363 10.5303 2.45678 10.2979C2.72226 10.0333 2.98753 9.76845 3.25279 9.50357C3.79829 8.95886 4.34406 8.41441 4.89 7.87015C4.83146 7.73012 4.74584 7.64155 4.63882 7.53509C4.62082 7.51707 4.60281 7.49905 4.58426 7.48049C4.52394 7.42023 4.46337 7.36024 4.40279 7.30025C4.35947 7.25707 4.31616 7.21387 4.27287 7.17066C4.17965 7.07768 4.08632 6.98482 3.99289 6.89205C3.8452 6.74537 3.6978 6.59842 3.55044 6.45141C3.23761 6.13942 2.92446 5.82774 2.61128 5.5161C2.27319 5.17966 1.93516 4.84318 1.59749 4.50632C1.45095 4.36017 1.30424 4.2142 1.15739 4.06837C1.06611 3.97766 0.974997 3.88679 0.883922 3.79588C0.841626 3.75372 0.799265 3.71164 0.756835 3.66962C0.698962 3.61229 0.641326 3.55473 0.583743 3.49711C0.551413 3.46495 0.519083 3.43278 0.485773 3.39965C0.347599 3.2454 0.320233 3.1326 0.316084 2.92664C0.314579 2.88605 0.313074 2.84546 0.311523 2.80364C0.358677 2.50951 0.578917 2.29547 0.782775 2.09154C0.80762 2.06641 0.832466 2.04128 0.858065 2.01539C0.910341 1.9627 0.962765 1.91017 1.01533 1.85778C1.09507 1.77808 1.17397 1.6976 1.25285 1.61706C1.30405 1.56566 1.3553 1.51431 1.4066 1.46301C1.4298 1.4392 1.453 1.41538 1.4769 1.39084C1.76831 1.10392 2.10092 0.958382 2.50252 1.11528Z" fill="white"/>
</g>
<defs>
<clipPath id="clip0_393_2060">
<rect width="14.162" height="14.162" fill="#272360" transform="translate(-0.00585938 0.751465)"/>
</clipPath>
</defs>
</svg>