<svg width="19" height="19" viewBox="0 0 19 19" fill="none" xmlns="http://www.w3.org/2000/svg">
<path d="M17.755 15.3085H1.24503C1.04744 15.3085 0.857936 15.3926 0.718215 15.5422C0.578494 15.6918 0.5 15.8948 0.5 16.1064V17.7021C0.5 17.9137 0.578494 18.1167 0.718215 18.2663C0.857936 18.4159 1.04744 18.5 1.24503 18.5H17.755C17.9526 18.5 18.1421 18.4159 18.2818 18.2663C18.4215 18.1167 18.5 17.9137 18.5 17.7021V16.1064C18.5 15.8948 18.4215 15.6918 18.2818 15.5422C18.1421 15.3926 17.9526 15.3085 17.755 15.3085ZM17.755 7.90426H1.24503C1.04744 7.90426 0.857936 7.98832 0.718215 8.13795C0.578494 8.28758 0.5 8.49052 0.5 8.70213V10.2979C0.5 10.5095 0.578494 10.7124 0.718215 10.8621C0.857936 11.0117 1.04744 11.0957 1.24503 11.0957H17.755C17.9526 11.0957 18.1421 11.0117 18.2818 10.8621C18.4215 10.7124 18.5 10.5095 18.5 10.2979V8.70213C18.5 8.49052 18.4215 8.28758 18.2818 8.13795C18.1421 7.98832 17.9526 7.90426 17.755 7.90426ZM17.755 0.5H1.24503C1.04744 0.5 0.857936 0.584061 0.718215 0.733691C0.578494 0.883321 0.5 1.08626 0.5 1.29787V2.89362C0.5 3.10523 0.578494 3.30817 0.718215 3.4578C0.857936 3.60743 1.04744 3.69149 1.24503 3.69149H17.755C17.9526 3.69149 18.1421 3.60743 18.2818 3.4578C18.4215 3.30817 18.5 3.10523 18.5 2.89362V1.29787C18.5 1.08626 18.4215 0.883321 18.2818 0.733691C18.1421 0.584061 17.9526 0.5 17.755 0.5Z" fill="white"/>
</svg>
