<svg xmlns="http://www.w3.org/2000/svg" width="155" height="22" viewBox="0 0 155 22" fill="none">
<path d="M4.98672 21H0.48672V0.899999H10.9867C15.6367 0.899999 18.6367 3.54 18.6367 8.16C18.6367 12.78 15.6367 15.45 10.9867 15.45H4.98672V21ZM10.5067 4.95H4.98672V11.4H10.5067C12.9967 11.4 14.1667 10.68 14.1667 8.16C14.1667 5.7 12.9967 4.95 10.5067 4.95ZM25.9328 21H21.4328V5.97H25.6028V9.96H25.8728C26.2928 7.53 27.8828 5.67 30.9128 5.67C34.2728 5.67 35.6528 7.98 35.6528 10.92V13.41H31.1528V11.85C31.1528 10.2 30.4928 9.48 28.6628 9.48C26.6528 9.48 25.9328 10.41 25.9328 12.3V21ZM46.4924 21.3C41.3624 21.3 37.9124 18.24 37.9124 13.5C37.9124 8.7 41.3624 5.67 46.4924 5.67C51.6224 5.67 55.0724 8.7 55.0724 13.5C55.0724 18.24 51.6224 21.3 46.4924 21.3ZM46.4924 17.31C49.5224 17.31 50.6024 16.14 50.6024 13.5C50.6024 10.86 49.5224 9.63 46.4924 9.63C43.4324 9.63 42.3824 10.86 42.3824 13.5C42.3824 16.14 43.4324 17.31 46.4924 17.31Z" fill="#FEDB24"/>
<path d="M60.9002 21H55.8602L64.6502 0.899999H71.0702L79.9202 21H74.7602L72.8702 16.56H62.8202L60.9002 21ZM66.4502 8.13L64.5602 12.51H71.1302L69.2402 8.13L68.0102 5.01H67.6802L66.4502 8.13ZM89.2799 21.3C84.1199 21.3 80.8199 18.24 80.8199 13.5C80.8199 8.7 84.1199 5.67 89.2799 5.67C94.1099 5.67 97.4099 8.25 97.4099 12.15V12.57H92.9399V12.33C92.9399 10.41 91.5299 9.72 89.1899 9.72C86.5199 9.72 85.2899 10.71 85.2899 13.5C85.2899 16.26 86.5199 17.25 89.1899 17.25C91.5299 17.25 92.9399 16.56 92.9399 14.64V14.4H97.4099V14.82C97.4099 18.69 94.1099 21.3 89.2799 21.3ZM110.236 21H106.516C103.006 21 100.876 19.35 100.876 15.57V9.69H98.5061V5.97H100.876V3.06H105.376V5.97H110.236V9.69H105.376V15.06C105.376 16.56 105.946 16.95 107.536 16.95H110.236V21ZM116.721 4.44H112.221V0.899999H116.721V4.44ZM116.721 21H112.221V5.97H116.721V21ZM130.567 21H125.017L118.177 5.97H123.187L127.687 16.62H127.987L132.517 5.97H137.437L130.567 21ZM146.905 21.3C141.895 21.3 138.475 18.84 138.475 13.5C138.475 8.7 141.865 5.67 146.815 5.67C151.735 5.67 155.005 8.25 155.005 12.96C155.005 13.5 154.945 13.89 154.885 14.4H142.645C142.765 16.71 143.845 17.7 146.755 17.7C149.425 17.7 150.355 17.01 150.355 15.72V15.42H154.855V15.75C154.855 19.02 151.675 21.3 146.905 21.3ZM146.725 9.18C144.055 9.18 142.915 10.08 142.705 12.03H150.685C150.565 10.05 149.365 9.18 146.725 9.18Z" fill="white"/>
</svg>