<svg xmlns="http://www.w3.org/2000/svg" width="20" height="20" viewBox="0 0 20 20" fill="none">
<g clip-path="url(#clip0_408_125)">
<path d="M14.6893 1.12991C14.7161 1.14397 14.743 1.15804 14.7707 1.17254C15.9448 1.78952 17.052 2.70514 17.8531 3.76644C17.872 3.79076 17.8908 3.81508 17.9102 3.84013C19.5042 5.89968 20.2508 8.45381 19.9401 11.0469C19.701 12.8554 18.9676 14.5557 17.8154 15.9698C17.7988 15.9904 17.7821 16.0109 17.7649 16.0321C17.3426 16.5486 16.8763 17.032 16.3465 17.4388C16.2985 17.4769 16.2506 17.5151 16.2026 17.5534C14.532 18.8736 12.4773 19.5802 10.3578 19.661C10.3172 19.6626 10.2765 19.6642 10.2347 19.6658C9.03461 19.688 7.82517 19.4695 6.69727 19.0654C6.66741 19.0548 6.63754 19.0441 6.60678 19.0331C6.57629 19.0218 6.5458 19.0104 6.51439 18.9988C6.46293 18.9803 6.46293 18.9803 6.41043 18.9616C6.31062 18.9169 6.23526 18.8718 6.14622 18.8105C5.81376 18.5992 5.53553 18.5428 5.14964 18.6222C4.84016 18.6926 4.53591 18.7828 4.23202 18.8739C4.06645 18.9229 3.90006 18.9689 3.73372 19.0152C3.46237 19.091 3.19148 19.1681 2.9208 19.2462C2.40773 19.394 1.89176 19.5306 1.37541 19.6664C1.19252 19.7145 1.00982 19.7632 0.827191 19.8123C0.779382 19.8251 0.731573 19.8379 0.682316 19.8511C0.593644 19.8748 0.504995 19.8986 0.416376 19.9225C0.377736 19.9328 0.339097 19.9431 0.299286 19.9537C0.265802 19.9627 0.232318 19.9717 0.197819 19.981C0.112994 20 0.112994 20 0 20C0.0495449 19.6927 0.122627 19.3964 0.207156 19.097C0.227297 19.0248 0.247438 18.9526 0.267573 18.8803C0.289028 18.8035 0.310571 18.7266 0.332136 18.6498C0.377258 18.489 0.422032 18.3281 0.466736 18.1671C0.48213 18.1117 0.497524 18.0563 0.512918 18.0009C0.524482 17.9593 0.524481 17.9593 0.536278 17.9169C0.576041 17.7738 0.615864 17.6308 0.655695 17.4878C0.663699 17.459 0.671704 17.4303 0.679951 17.4007C0.720838 17.2539 0.761758 17.1071 0.802728 16.9603C0.891658 16.6417 0.980336 16.323 1.0683 16.0041C1.10628 15.8665 1.14444 15.7289 1.18301 15.5914C1.21926 15.4622 1.25508 15.3329 1.29057 15.2035C1.30989 15.1334 1.32968 15.0635 1.34948 14.9936C1.36089 14.9517 1.3723 14.9098 1.38406 14.8666C1.39919 14.8122 1.39918 14.8122 1.41461 14.7566C1.4451 14.5642 1.39549 14.4107 1.30856 14.2405C1.29133 14.206 1.2741 14.1715 1.25635 14.136C1.23794 14.0995 1.21953 14.063 1.20057 14.0254C1.00522 13.6274 0.849818 13.228 0.715631 12.806C0.698575 12.7548 0.681509 12.7037 0.66443 12.6525C-0.126501 10.2084 0.238796 7.49791 1.38173 5.23422C1.57368 4.86647 1.79665 4.52068 2.0339 4.18075C2.06223 4.14012 2.06223 4.14012 2.09113 4.09867C2.36782 3.70655 2.67832 3.35616 3.01318 3.01314C3.0387 2.98665 3.06422 2.96016 3.09052 2.93287C3.41275 2.59877 3.7378 2.28195 4.11317 2.00797C4.18358 1.95649 4.25314 1.90396 4.32277 1.85142C7.29622 -0.354192 11.4396 -0.597948 14.6893 1.12991ZM6.629 3.42746C6.60658 3.43919 6.58416 3.45093 6.56107 3.46303C6.0214 3.74746 5.54048 4.11767 5.10277 4.54131C5.04488 4.59719 4.98625 4.65223 4.92761 4.70732C3.64616 5.92994 2.86545 7.7482 2.81588 9.5137C2.793 11.0198 3.11671 12.5008 3.96657 13.765C3.98783 13.7973 3.98783 13.7973 4.00952 13.8304C4.04864 13.8895 4.08886 13.9479 4.12915 14.0063C4.24556 14.2723 4.09922 14.6061 4.0241 14.8725C4.01245 14.9146 4.0008 14.9566 3.98879 14.9999C3.95177 15.1334 3.91446 15.2668 3.87712 15.4002C3.83968 15.5343 3.80231 15.6686 3.76504 15.8028C3.74188 15.8862 3.71863 15.9695 3.69525 16.0528C3.68481 16.0903 3.67438 16.1278 3.66363 16.1664C3.65437 16.1994 3.64512 16.2325 3.63558 16.2665C3.61281 16.3449 3.61281 16.3449 3.61582 16.4218C3.96506 16.3425 4.31227 16.2577 4.65807 16.1645C4.69218 16.1553 4.72629 16.1462 4.76143 16.1367C4.90206 16.099 5.04268 16.0612 5.18314 16.0227C5.28737 15.9943 5.39173 15.9663 5.49612 15.9385C5.54355 15.9253 5.54355 15.9253 5.59194 15.9119C5.79725 15.8577 5.92544 15.8438 6.12044 15.9418C6.15338 15.9615 6.18633 15.9813 6.22028 16.0016C6.25771 16.0236 6.29514 16.0455 6.3337 16.0681C6.39364 16.1034 6.39364 16.1034 6.4548 16.1393C8.18221 17.1286 10.1743 17.3435 12.0889 16.8306C12.606 16.6855 13.0881 16.4901 13.5593 16.2335C13.5932 16.2154 13.5932 16.2154 13.6278 16.1969C15.2741 15.3131 16.5698 13.7689 17.1331 11.9849C17.4673 10.8586 17.5814 9.63051 17.3258 8.47454C17.3193 8.44514 17.3129 8.41574 17.3062 8.38545C17.0899 7.43503 16.7018 6.51156 16.1205 5.72501C16.0916 5.68549 16.0628 5.64597 16.033 5.60525C15.8326 5.33568 15.6166 5.08356 15.3845 4.8409C15.3475 4.8021 15.3106 4.76312 15.2739 4.72397C14.0911 3.46545 12.3413 2.61848 10.605 2.55655C9.18375 2.5271 7.8931 2.75427 6.629 3.42746Z" fill="#272360"/>
<path d="M6.99388 5.03527C7.04115 5.03418 7.08841 5.03309 7.13711 5.03196C7.47086 5.02968 7.67487 5.06424 7.9355 5.28245C8.11907 5.50074 8.24148 5.73877 8.34496 6.00308C8.36256 6.04696 8.36256 6.04696 8.38053 6.09173C8.41764 6.18439 8.45437 6.27719 8.49106 6.37002C8.52757 6.4617 8.56417 6.55335 8.6008 6.64498C8.62472 6.70482 8.64859 6.76468 8.67242 6.82455C8.76322 7.05193 8.85929 7.27661 8.95855 7.50042C9.06018 7.75333 9.05984 7.96363 8.97187 8.22074C8.81651 8.57433 8.59181 8.87677 8.32392 9.1525C8.3801 9.31528 8.46599 9.4474 8.56638 9.58565C8.58294 9.60855 8.5995 9.63145 8.61656 9.65505C9.29603 10.5827 10.1406 11.1111 11.1488 11.6384C11.2998 11.4937 11.4294 11.3391 11.5584 11.1746C11.5984 11.1243 11.6385 11.0741 11.6786 11.0238C11.7419 10.9444 11.805 10.8649 11.8678 10.7852C12.0204 10.5993 12.1534 10.4962 12.3995 10.4578C12.9136 10.4246 13.4341 10.7753 13.8804 10.9929C14.0367 11.0691 14.1937 11.1436 14.3518 11.2163C14.3873 11.2327 14.4228 11.2492 14.4595 11.2661C14.5257 11.2967 14.5921 11.327 14.6587 11.3569C14.9089 11.4732 15.1111 11.5952 15.2507 11.8391C15.2987 12.0001 15.3121 12.1398 15.3107 12.3069C15.3105 12.3378 15.3103 12.3687 15.3101 12.4005C15.2956 12.9127 15.1666 13.42 14.8399 13.8229C14.8216 13.8461 14.8032 13.8693 14.7843 13.8931C14.3181 14.4131 13.5493 14.7587 12.8642 14.809C12.0771 14.8495 11.3877 14.6703 10.6591 14.3879C10.6227 14.3738 10.5863 14.3597 10.5488 14.3452C9.60233 13.9742 8.7693 13.4944 8.00611 12.8201C7.96466 12.7836 7.92287 12.7475 7.88085 12.7117C7.67424 12.5346 7.48021 12.3459 7.28781 12.1535C7.2344 12.1002 7.18068 12.0472 7.12696 11.9941C6.89415 11.7618 6.68156 11.5202 6.47834 11.2617C6.4569 11.2348 6.43547 11.2079 6.41338 11.1801C5.5077 10.0349 4.69648 8.77604 4.86902 7.25407C4.98276 6.48751 5.3932 5.77003 5.9887 5.27303C6.32639 5.06467 6.60287 5.03824 6.99388 5.03527Z" fill="#272360"/>
</g>
<defs>
<clipPath id="clip0_408_125">
<rect width="20" height="20" fill="white"/>
</clipPath>
</defs>
</svg>